/* XPM */
static char *d4964938d2f4402dd8c45d57cec33707xVTMfEzLio5mZEE1[] = {
/* columns rows colors chars-per-pixel */
"64 64 250 2 ",
"   c None",
".  c #040208",
"X  c #080A0C",
"o  c #081618",
"O  c #1C161C",
"+  c #141834",
"@  c #1F1D34",
"#  c #301A3C",
"$  c #182628",
"%  c #1B262A",
"&  c #1A263B",
"*  c #1B263B",
"=  c #18263C",
"-  c #19263C",
";  c #302634",
":  c #2C3638",
">  c #20264C",
",  c #322644",
"<  c #382943",
"1  c #322648",
"2  c #33264C",
"3  c #33264D",
"4  c #39284A",
"5  c #3A284B",
"6  c #342652",
"7  c #342654",
"8  c #352755",
"9  c #3E2854",
"0  c #2C3654",
"q  c #353A5D",
"w  c #41295D",
"e  c #472B5E",
"r  c #462C5C",
"t  c #492E5D",
"y  c #4F3053",
"u  c #483159",
"i  c #4E3659",
"p  c #452A65",
"a  c #452A66",
"s  c #4D2D67",
"d  c #4C2668",
"f  c #472A6C",
"g  c #4E2D69",
"h  c #4E2C6A",
"j  c #492B6D",
"k  c #512E6F",
"l  c #483664",
"z  c #43396D",
"x  c #55346D",
"c  c #5B3E69",
"v  c #4D2C70",
"b  c #4D2B79",
"n  c #4F2C7B",
"m  c #4F2C7D",
"M  c #552E77",
"N  c #552E78",
"B  c #582E7C",
"V  c #592F7F",
"C  c #573975",
"Z  c #573C78",
"A  c #30465C",
"S  c #50565C",
"D  c #58467C",
"F  c #50587C",
"G  c #6C477E",
"H  c #60666C",
"J  c #787678",
"K  c #D01010",
"L  c #502C80",
"P  c #553085",
"I  c #563085",
"U  c #5D3E80",
"Y  c #5C3884",
"T  c #5D3985",
"R  c #613B89",
"E  c #663B89",
"W  c #653E8D",
"Q  c #693E8E",
"!  c #642A98",
"~  c #643192",
"^  c #623990",
"/  c #68329A",
"(  c #6F33A7",
")  c #6C38A0",
"_  c #733CA1",
"`  c #7234AD",
"'  c #7835B7",
"]  c #743AB0",
"[  c #344385",
"{  c #34468C",
"}  c #3C4D8C",
"|  c #3C568C",
" . c #674480",
".. c #654785",
"X. c #64408C",
"o. c #64428C",
"O. c #6F468F",
"+. c #6C4B8A",
"@. c #73478E",
"#. c #754C88",
"$. c #754C89",
"%. c #6E4895",
"&. c #6C4499",
"*. c #774C96",
"=. c #7C5091",
"-. c #755599",
";. c #4C6688",
":. c #54769F",
">. c #7C768C",
",. c #4058A4",
"<. c #7852A1",
"1. c #7856A8",
"2. c #4866A0",
"3. c #5476A0",
"4. c #4866B4",
"5. c #7F37C4",
"6. c #4C6CC4",
"7. c #5878CC",
"8. c #825F97",
"9. c #87569F",
"0. c #8F5D9E",
"q. c #8E619C",
"w. c #824CAC",
"e. c #8453A3",
"r. c #8856A0",
"t. c #8A57A2",
"y. c #8D59A6",
"u. c #8E59A7",
"i. c #8E5FA8",
"p. c #905AA9",
"a. c #915BAA",
"s. c #945DAD",
"d. c #844AB4",
"f. c #8A4ABF",
"g. c #8857B1",
"h. c #8C58B4",
"j. c #9D65BC",
"k. c #9F69BD",
"l. c #A063BE",
"z. c #A064BE",
"x. c #AD74BD",
"c. c #A77ABA",
"v. c #8237C9",
"b. c #863ACE",
"n. c #8639D1",
"m. c #8A39D9",
"M. c #8A3AD9",
"N. c #8C3ADC",
"B. c #9151CB",
"V. c #9446D8",
"C. c #9546DC",
"Z. c #9A55D9",
"A. c #9C56DC",
"S. c #9F59DC",
"D. c #9162C7",
"F. c #9162C8",
"G. c #9263C9",
"H. c #9464CC",
"J. c #A365C1",
"K. c #A067C3",
"L. c #A767C6",
"P. c #A969C9",
"I. c #AA69CA",
"U. c #AB69CB",
"Y. c #AB6ACB",
"T. c #AC6ACC",
"R. c #AC6BCD",
"E. c #AD6BCD",
"W. c #AD6BCE",
"Q. c #AE6DCF",
"!. c #A476C0",
"~. c #A577C1",
"^. c #A778C3",
"/. c #AD71CE",
"(. c #AE72CF",
"). c #BC7ECE",
"_. c #AF6DD0",
"`. c #AD69DB",
"'. c #B06FD1",
"]. c #B06FD2",
"[. c #AE72D0",
"{. c #AF73D1",
"}. c #AF72D4",
"|. c #B372D5",
" X c #B372D6",
".X c #B274D4",
"XX c #B675D7",
"oX c #B978D2",
"OX c #B073D8",
"+X c #B777D8",
"@X c #B677D9",
"#X c #B676DA",
"$X c #B777DA",
"%X c #B677DB",
"&X c #B777DB",
"*X c #B270DC",
"=X c #B371DC",
"-X c #B672DC",
";X c #B779D9",
":X c #B979DB",
">X c #B87BDB",
",X c #B87EDA",
"<X c #B878DC",
"1X c #B978DC",
"2X c #BA7BDC",
"3X c #BB7ADD",
"4X c #BD7CDD",
"5X c #708490",
"6X c #6086C0",
"7X c #7498C4",
"8X c #6086D4",
"9X c #748CD0",
"0X c #78A4CC",
"qX c #6C96E0",
"wX c #70A6E4",
"eX c #78B6EC",
"rX c #848688",
"tX c #909694",
"yX c #ACA6AC",
"uX c #A8B4B4",
"iX c #BCB6BC",
"pX c #8C8AC4",
"aX c #B280D1",
"sX c #B481D3",
"dX c #B884D8",
"fX c #84A6DC",
"gX c #C181D4",
"hX c #C08BD7",
"jX c #C381DE",
"kX c #C481DE",
"lX c #C582DF",
"zX c #C784DF",
"xX c #CB87DF",
"cX c #CB88DF",
"vX c #CC88DF",
"bX c #CC88E0",
"nX c #CC94E4",
"mX c #80C4EC",
"MX c #94C4E0",
"NX c #94C4F4",
"BX c #8CD0F0",
"VX c #ACD0F0",
"CX c #ACDCF0",
"ZX c #B0E8F8",
"AX c #C4C6C4",
"SX c #CCD2D4",
"DX c #E0DAE4",
"FX c #CCF0F4",
"GX c #E8E6EC",
"HX c white",
/* pixels */
"                                                                                                                                ",
"                                                                                                                                ",
"                                                                                                                                ",
"                                                                                                                                ",
"                                                                                                                                ",
"                                                                  # #                                                           ",
"                                                              # # l N.#                                                         ",
"                                                        # # # d V.N.l #                                                         ",
"                                                    # # V.+ 4.2.o # # +                                                         ",
"                                                  # T.V.o pXHXZX,.+ + ! +                                                       ",
"                                                # T.N.o ,.FXHXFXFX,.+ + ) +                                                     ",
"                                                # T.+ ,.eXBXBX9XeXeX,.+ ; ) +                                                   ",
"                    S S S S S S             # # N.N.+ wXBX,.+ + ,.eXqX0 O 7 7 +             S S S S S S                         ",
"                  S SXGXGXDXGXuXS S       # N.T.N.+ 6XmXBX+ ^ L > qXeXF + + d.0.+       S S uXGXDXGXGXSXS                       ",
"                S yXGXS S S yXGXGXS S   # s.#XV.N.0 0XBXeXq }. XL 7.eX7.+ + V.).y + S S S GXGXyXS S S GXyXS                     ",
"              S yXGXS       S S SXDXS #  X1X-XP + | ZXZXfXz <X*X! 7.eX7.> + V.sXq.; ; S DXSXS S       S GXyXS                   ",
"              S HXyXS           S uX>._.2X:Xg.B o ,.ZXZXwX+.<XOXT 7.eX8X| ; 7 <Xc.a.o.>.uXS           S yXHXS                   ",
"              S HXS               # D 1X1Xj.b.L o qXZXZXqX-.<X#XY 7.eX8X2.o 7 _.hX8.&.1.+               S HXS                   ",
"              S HXS               # T.4X%XO.5.N.o eXZXZXwX%.1X;XR 7.eX8X6Xo 7 ].bXx.Z _.+               S HXS                   ",
"              S HXS               # T.4X}.x ' N.o eXZXZXwXT 2X=XW 7.eXqX8Xo 7 ].kXdXo.R.+               S HXS                   ",
"              S HXS               # E.zX[.t ( N.o eXZXZXwX+ T.S.! 7.eX9X8Xo h._.kXx.C L.+               S HXS                   ",
"              S HXS                 # vX/.u 9 N.o qXZXZXeX+ d.A.L 7.eX6X8X+ H.}.,Xy.~ +                 S HXS                   ",
"              S HXS                 # dX/.y 9 N.$ ,.ZXZXmX> d ] > { wX7.2.0 1._.R.G B +                 S HXS                   ",
"              S HXiXS               # z.aXD 2 l + 0 ZXZXmX2.7 7 { eX6.7.{ ; + T.G.I $...+             S iXHXS                   ",
"              S AXHXS             # 2 a.sXG ; $ $ o eXeXeXeX2.{ eX6.6.7.o $ + + v.g r.$.+             S HXAXS                   ",
"                S GXHXS           # j t.&X=.} eX7.o ,.eXqXeXeXeX7.6.7.{ o o 7.{ a 4 u.r.+           S HXGXS                     ",
"                  S tXrXS S     # Z f._ I.l.& 7.eX7.o ,.eXfXeX7.7.7.{ > o 7.7.+ j 4 u.^.<.+     S S rXtXS                       ",
"                S HXHXHXHXtXS   + `.e.k j.T.L X 7.ZXeX: ,.eXeXeX7.{ > { 7.7.o o.3 < z.xX(.+   S tXHXHXHXHXS                     ",
"              S HXGXyXAXAXHXyXS + 1XK.t v L N.L $ eXZXeX{ eXeXeX7.: 7.7.7.$ o.o.@ < gXnXI.+ S yXHXAXAXyXGXHXS                   ",
"              S HXDXH S S AXHXtX+ <X1XE r m T.N.L o eXZXZXZXZXVXeX7.eX7.$ L o.o., M cXbXT.+ tXHXAXS S H DXHXS                   ",
"              S HXAXS iXiXS HXtX+ N.zXoXs N n.T.- o o eXZXZXZXCXeXeX7.o o = T.m.` B.nXbXh.+ tXHXS iXiXS AXHXS                   ",
"              S HXyXrXS AXS S HX+ 7 <XbXw.g / I.{ o HXo eXMXVXZXwXwXo S o { T.N.Z.1XvXT.7 + HXS S AXS rXyXHXS                   ",
"              S HXrX  S DXAXS iXS + L dX#X@.Q - 3.o HXK o ;.eXeX;.o K HXo { = A.T.#X~.b + S iXS AXDXS   rXHXS                   ",
"              S HXJ     tXGXtXiXS + 7 L h.F.& :.wXo eXo o : 8X8X: o o eXo 7X{ = F.*.p 6 + S iXtXGXtX    J HXS                   ",
"              S HXH S   S SXAXrXS   X { $ L = BXBX{ 0 GXS 5XH H 5XS GX0 { 7X7.= m $ [ X   S rXAXSXS   S H HXS                   ",
"              S SXAXS     S S S     X wXwX- { BXBX7X0 rXGXSXGXGXSXGXrX0 { 7.7.{ = wXwXX     S S S     S AXSXS                   ",
"                S DXS               . wXwX= { wX7XNXNX0 rXHXHXHXHXrX0 NX7X{ 7.{ = wXwX.               S DXS                     ",
"                S HXH               . 7.{ = { 3.wXNXNXwXo H GXGXH o wXNXNX7X7.{ = { 7..               H HXS                     ",
"                S HXyXS             . 7.= = 7XGXGXwX7X0 5X. H H . 5X0 7XNXNX7.7.= = 7..             S yXHXS                     ",
"                  S GXS           . { { o - ZXGXGXwX0 ;.SX5X. . 5XSX;.0 wXGXBX7.- o { { .           S GXS                       ",
"                  S DXyXS         . 7.{ o - GXZXBXBX7.SX5XSXHXHXSX5XSX7.BXZXZX7.- o { 7..         S yXDXS                       ",
"                    S SXS       . { 7.{ : { mXBXBX7.7.HX$ $ $ $ $ $ GX7.7.BXBXmX{ : { 7.{ .       S SXS                         ",
"                    S SXyXS     . wX7.{ = 7.mXmX7.7.SXo             o SXmX7.mXmX{ = { 7.wX.     S yXSXS                         ",
"                      yXDXS     . wX{ 7.= mXmXmX7.{ 5Xo             o 5XmXmXmX7.{ = 7.{ wX.     S DXyX                          ",
"                      H DXS     . wX{ 7.= mXZXmX7.{ o                 o mXmXZX7.{ { 7.{ wX.     S DXH                           ",
"                      H SXS       . . X { ZXZXeX6.{ o                 o wXmXZXeX7.{ X . .       S SXH                           ",
"                      S AXS           X 7.ZXZXeX{ { o                 o wXwXeXeX7.{ X           S AXS                           ",
"                      S AXS           X wXeXwXeX{ { o                 o { wXwX7.{ { X           S AXS                           ",
"                      S tXS           X 6.wXwX6.{ o                     o wXwX7.{ { X           S tXS                           ",
"                      S S             X 6.wXwX{ { o                     o { wX7.{ { X             S S                           ",
"                    S rXS             X { 7.6.,.o                         o 7.7.{ { X             S rXS                         ",
"                  S rXS               o 7.7.4.4.o                         o 7.7.{ 7.o               S rXS                       ",
"                                    o A eXeX7.{ o                         o 7.7.eXeXA o                                         ",
"                                    o eXeXeXwX{ o                         o { wXeXeXeXo                                         ",
"                                  X eXwXeXeXeX7.7.o                     o 7.7.eXeXeXwXeXX                                       ",
"                                  o eX2.eX8XeX7.7.o                     o 7.7.eX8XeX2.eXo                                       ",
"                                  o 8X$ eX8X: 7.7.o                     o 7.7.: 8XeX$ 8Xo                                       ",
"                                    o o . . X X o                         o X X . . o o o                                       ",
"                                                                                                                                ",
"                                                                                                                                ",
"                                                                                                                                ",
"                                                                                                                                ",
"                                                                                                                                ",
"                                                                                                                                "
};
